<mxfile host="app.diagrams.net" agent="Mozilla/5.0 (Windows NT 10.0; Win64; x64) AppleWebKit/537.36 (KHTML, like Gecko) Chrome/127.0.0.0 Safari/537.36 OPR/113.0.0.0" version="24.7.17" pages="4">
  <diagram name="Zadanie1" id="7Ivbg93zldY44Fc9zpjs">
    <mxGraphModel dx="1393" dy="801" grid="1" gridSize="10" guides="1" tooltips="1" connect="1" arrows="1" fold="1" page="1" pageScale="1" pageWidth="827" pageHeight="1169" math="0" shadow="0">
      <root>
        <mxCell id="0" />
        <mxCell id="1" parent="0" />
        <mxCell id="-MsFzH8xyKUJ2mzaFZ3a-1" value="Pracownicy" style="rounded=0;whiteSpace=wrap;html=1;" parent="1" vertex="1">
          <mxGeometry x="350" y="190" width="120" height="60" as="geometry" />
        </mxCell>
        <mxCell id="-MsFzH8xyKUJ2mzaFZ3a-2" value="pesel" style="ellipse;whiteSpace=wrap;html=1;" parent="1" vertex="1">
          <mxGeometry x="240" y="40" width="120" height="80" as="geometry" />
        </mxCell>
        <mxCell id="-MsFzH8xyKUJ2mzaFZ3a-3" value="" style="endArrow=none;html=1;rounded=0;entryX=1;entryY=1;entryDx=0;entryDy=0;exitX=0.25;exitY=0;exitDx=0;exitDy=0;" parent="1" source="-MsFzH8xyKUJ2mzaFZ3a-1" target="-MsFzH8xyKUJ2mzaFZ3a-2" edge="1">
          <mxGeometry width="50" height="50" relative="1" as="geometry">
            <mxPoint x="610" y="350" as="sourcePoint" />
            <mxPoint x="660" y="300" as="targetPoint" />
          </mxGeometry>
        </mxCell>
        <mxCell id="-MsFzH8xyKUJ2mzaFZ3a-4" value="imie" style="ellipse;whiteSpace=wrap;html=1;" parent="1" vertex="1">
          <mxGeometry x="470" y="40" width="120" height="80" as="geometry" />
        </mxCell>
        <mxCell id="-MsFzH8xyKUJ2mzaFZ3a-5" value="" style="endArrow=none;html=1;rounded=0;entryX=0;entryY=1;entryDx=0;entryDy=0;exitX=0.75;exitY=0;exitDx=0;exitDy=0;" parent="1" source="-MsFzH8xyKUJ2mzaFZ3a-1" target="-MsFzH8xyKUJ2mzaFZ3a-4" edge="1">
          <mxGeometry width="50" height="50" relative="1" as="geometry">
            <mxPoint x="610" y="350" as="sourcePoint" />
            <mxPoint x="660" y="300" as="targetPoint" />
          </mxGeometry>
        </mxCell>
        <mxCell id="-MsFzH8xyKUJ2mzaFZ3a-6" value="" style="endArrow=none;html=1;rounded=0;entryX=0;entryY=0.5;entryDx=0;entryDy=0;exitX=1;exitY=0.25;exitDx=0;exitDy=0;" parent="1" source="-MsFzH8xyKUJ2mzaFZ3a-1" target="-MsFzH8xyKUJ2mzaFZ3a-7" edge="1">
          <mxGeometry width="50" height="50" relative="1" as="geometry">
            <mxPoint x="480" y="250" as="sourcePoint" />
            <mxPoint x="528" y="168" as="targetPoint" />
          </mxGeometry>
        </mxCell>
        <mxCell id="-MsFzH8xyKUJ2mzaFZ3a-7" value="nazwisko" style="ellipse;whiteSpace=wrap;html=1;" parent="1" vertex="1">
          <mxGeometry x="590" y="130" width="120" height="80" as="geometry" />
        </mxCell>
        <mxCell id="-MsFzH8xyKUJ2mzaFZ3a-8" value="id_wydzialu" style="ellipse;whiteSpace=wrap;html=1;" parent="1" vertex="1">
          <mxGeometry x="120" y="130" width="120" height="80" as="geometry" />
        </mxCell>
        <mxCell id="-MsFzH8xyKUJ2mzaFZ3a-9" value="" style="endArrow=none;html=1;rounded=0;entryX=1;entryY=0.5;entryDx=0;entryDy=0;exitX=0;exitY=0.25;exitDx=0;exitDy=0;" parent="1" source="-MsFzH8xyKUJ2mzaFZ3a-1" target="-MsFzH8xyKUJ2mzaFZ3a-8" edge="1">
          <mxGeometry width="50" height="50" relative="1" as="geometry">
            <mxPoint x="610" y="350" as="sourcePoint" />
            <mxPoint x="660" y="300" as="targetPoint" />
          </mxGeometry>
        </mxCell>
        <mxCell id="-MsFzH8xyKUJ2mzaFZ3a-10" value="Wydzial" style="rounded=0;whiteSpace=wrap;html=1;" parent="1" vertex="1">
          <mxGeometry x="1070" y="190" width="120" height="60" as="geometry" />
        </mxCell>
        <mxCell id="-MsFzH8xyKUJ2mzaFZ3a-11" value="nazwa" style="ellipse;whiteSpace=wrap;html=1;" parent="1" vertex="1">
          <mxGeometry x="950" y="40" width="120" height="80" as="geometry" />
        </mxCell>
        <mxCell id="-MsFzH8xyKUJ2mzaFZ3a-12" value="id" style="ellipse;whiteSpace=wrap;html=1;" parent="1" vertex="1">
          <mxGeometry x="1190" y="40" width="120" height="80" as="geometry" />
        </mxCell>
        <mxCell id="-MsFzH8xyKUJ2mzaFZ3a-13" value="ulica" style="ellipse;whiteSpace=wrap;html=1;" parent="1" vertex="1">
          <mxGeometry x="1310" y="130" width="120" height="80" as="geometry" />
        </mxCell>
        <mxCell id="-MsFzH8xyKUJ2mzaFZ3a-14" value="miasto" style="ellipse;whiteSpace=wrap;html=1;" parent="1" vertex="1">
          <mxGeometry x="830" y="130" width="120" height="80" as="geometry" />
        </mxCell>
        <mxCell id="-MsFzH8xyKUJ2mzaFZ3a-15" value="" style="endArrow=none;html=1;rounded=0;entryX=0;entryY=0.5;entryDx=0;entryDy=0;exitX=1;exitY=0.25;exitDx=0;exitDy=0;" parent="1" source="-MsFzH8xyKUJ2mzaFZ3a-10" target="-MsFzH8xyKUJ2mzaFZ3a-13" edge="1">
          <mxGeometry width="50" height="50" relative="1" as="geometry">
            <mxPoint x="770" y="250" as="sourcePoint" />
            <mxPoint x="820" y="200" as="targetPoint" />
          </mxGeometry>
        </mxCell>
        <mxCell id="-MsFzH8xyKUJ2mzaFZ3a-16" value="" style="endArrow=none;html=1;rounded=0;entryX=1;entryY=0.5;entryDx=0;entryDy=0;exitX=0;exitY=0.25;exitDx=0;exitDy=0;" parent="1" source="-MsFzH8xyKUJ2mzaFZ3a-10" target="-MsFzH8xyKUJ2mzaFZ3a-14" edge="1">
          <mxGeometry width="50" height="50" relative="1" as="geometry">
            <mxPoint x="770" y="250" as="sourcePoint" />
            <mxPoint x="820" y="200" as="targetPoint" />
          </mxGeometry>
        </mxCell>
        <mxCell id="-MsFzH8xyKUJ2mzaFZ3a-17" value="" style="endArrow=none;html=1;rounded=0;entryX=0;entryY=1;entryDx=0;entryDy=0;exitX=0.75;exitY=0;exitDx=0;exitDy=0;" parent="1" source="-MsFzH8xyKUJ2mzaFZ3a-10" target="-MsFzH8xyKUJ2mzaFZ3a-12" edge="1">
          <mxGeometry width="50" height="50" relative="1" as="geometry">
            <mxPoint x="770" y="250" as="sourcePoint" />
            <mxPoint x="820" y="200" as="targetPoint" />
          </mxGeometry>
        </mxCell>
        <mxCell id="-MsFzH8xyKUJ2mzaFZ3a-18" value="" style="endArrow=none;html=1;rounded=0;entryX=1;entryY=1;entryDx=0;entryDy=0;exitX=0.25;exitY=0;exitDx=0;exitDy=0;" parent="1" source="-MsFzH8xyKUJ2mzaFZ3a-10" target="-MsFzH8xyKUJ2mzaFZ3a-11" edge="1">
          <mxGeometry width="50" height="50" relative="1" as="geometry">
            <mxPoint x="770" y="250" as="sourcePoint" />
            <mxPoint x="820" y="200" as="targetPoint" />
          </mxGeometry>
        </mxCell>
        <mxCell id="-MsFzH8xyKUJ2mzaFZ3a-19" value="id_szkoly" style="ellipse;whiteSpace=wrap;html=1;" parent="1" vertex="1">
          <mxGeometry x="1310" y="250" width="120" height="80" as="geometry" />
        </mxCell>
        <mxCell id="-MsFzH8xyKUJ2mzaFZ3a-20" value="" style="endArrow=none;html=1;rounded=0;entryX=0;entryY=0.5;entryDx=0;entryDy=0;exitX=1;exitY=0.75;exitDx=0;exitDy=0;" parent="1" source="-MsFzH8xyKUJ2mzaFZ3a-10" target="-MsFzH8xyKUJ2mzaFZ3a-19" edge="1">
          <mxGeometry width="50" height="50" relative="1" as="geometry">
            <mxPoint x="810" y="350" as="sourcePoint" />
            <mxPoint x="860" y="300" as="targetPoint" />
          </mxGeometry>
        </mxCell>
        <mxCell id="-MsFzH8xyKUJ2mzaFZ3a-21" value="Uczestnictwo_w_pr&lt;span style=&quot;background-color: initial;&quot;&gt;ojekcie&lt;/span&gt;" style="html=1;whiteSpace=wrap;aspect=fixed;shape=isoRectangle;" parent="1" vertex="1">
          <mxGeometry x="310" y="330" width="200" height="120" as="geometry" />
        </mxCell>
        <mxCell id="-MsFzH8xyKUJ2mzaFZ3a-22" value="Szkoly" style="rounded=0;whiteSpace=wrap;html=1;" parent="1" vertex="1">
          <mxGeometry x="1070" y="534" width="120" height="60" as="geometry" />
        </mxCell>
        <mxCell id="-MsFzH8xyKUJ2mzaFZ3a-23" value="id" style="ellipse;whiteSpace=wrap;html=1;" parent="1" vertex="1">
          <mxGeometry x="1370" y="524" width="120" height="80" as="geometry" />
        </mxCell>
        <mxCell id="-MsFzH8xyKUJ2mzaFZ3a-24" value="miasto" style="ellipse;whiteSpace=wrap;html=1;" parent="1" vertex="1">
          <mxGeometry x="1240" y="420" width="120" height="80" as="geometry" />
        </mxCell>
        <mxCell id="-MsFzH8xyKUJ2mzaFZ3a-25" value="nazwa" style="ellipse;whiteSpace=wrap;html=1;" parent="1" vertex="1">
          <mxGeometry x="1240" y="620" width="120" height="80" as="geometry" />
        </mxCell>
        <mxCell id="-MsFzH8xyKUJ2mzaFZ3a-26" value="" style="endArrow=none;html=1;rounded=0;entryX=0.5;entryY=0;entryDx=0;entryDy=0;exitX=0.494;exitY=1.003;exitDx=0;exitDy=0;exitPerimeter=0;" parent="1" source="-MsFzH8xyKUJ2mzaFZ3a-21" target="-MsFzH8xyKUJ2mzaFZ3a-27" edge="1">
          <mxGeometry width="50" height="50" relative="1" as="geometry">
            <mxPoint x="850" y="580" as="sourcePoint" />
            <mxPoint x="110" y="610" as="targetPoint" />
          </mxGeometry>
        </mxCell>
        <mxCell id="-MsFzH8xyKUJ2mzaFZ3a-27" value="Projekty" style="rounded=0;whiteSpace=wrap;html=1;" parent="1" vertex="1">
          <mxGeometry x="350" y="620" width="120" height="60" as="geometry" />
        </mxCell>
        <mxCell id="-MsFzH8xyKUJ2mzaFZ3a-28" value="" style="endArrow=none;html=1;rounded=0;entryX=1;entryY=0.5;entryDx=0;entryDy=0;exitX=0;exitY=1;exitDx=0;exitDy=0;" parent="1" source="-MsFzH8xyKUJ2mzaFZ3a-27" target="-MsFzH8xyKUJ2mzaFZ3a-30" edge="1">
          <mxGeometry width="50" height="50" relative="1" as="geometry">
            <mxPoint x="90" y="650" as="sourcePoint" />
            <mxPoint x="589.9999999999914" y="720" as="targetPoint" />
          </mxGeometry>
        </mxCell>
        <mxCell id="-MsFzH8xyKUJ2mzaFZ3a-29" value="" style="endArrow=none;html=1;rounded=0;entryX=0.5;entryY=1;entryDx=0;entryDy=0;exitX=0.502;exitY=0.013;exitDx=0;exitDy=0;exitPerimeter=0;" parent="1" source="-MsFzH8xyKUJ2mzaFZ3a-21" target="-MsFzH8xyKUJ2mzaFZ3a-1" edge="1">
          <mxGeometry width="50" height="50" relative="1" as="geometry">
            <mxPoint x="460" y="320" as="sourcePoint" />
            <mxPoint x="460" y="410" as="targetPoint" />
          </mxGeometry>
        </mxCell>
        <mxCell id="-MsFzH8xyKUJ2mzaFZ3a-30" value="nazwa" style="ellipse;whiteSpace=wrap;html=1;" parent="1" vertex="1">
          <mxGeometry x="170" y="700" width="120" height="80" as="geometry" />
        </mxCell>
        <mxCell id="-MsFzH8xyKUJ2mzaFZ3a-31" value="budzet" style="ellipse;whiteSpace=wrap;html=1;" parent="1" vertex="1">
          <mxGeometry x="170" y="540" width="120" height="80" as="geometry" />
        </mxCell>
        <mxCell id="-MsFzH8xyKUJ2mzaFZ3a-32" value="id" style="ellipse;whiteSpace=wrap;html=1;" parent="1" vertex="1">
          <mxGeometry x="40" y="610" width="120" height="80" as="geometry" />
        </mxCell>
        <mxCell id="-MsFzH8xyKUJ2mzaFZ3a-33" value="" style="endArrow=none;html=1;rounded=0;entryX=1;entryY=0.5;entryDx=0;entryDy=0;exitX=0;exitY=0;exitDx=0;exitDy=0;" parent="1" source="-MsFzH8xyKUJ2mzaFZ3a-27" target="-MsFzH8xyKUJ2mzaFZ3a-31" edge="1">
          <mxGeometry width="50" height="50" relative="1" as="geometry">
            <mxPoint x="350" y="594" as="sourcePoint" />
            <mxPoint x="120" y="634" as="targetPoint" />
          </mxGeometry>
        </mxCell>
        <mxCell id="-MsFzH8xyKUJ2mzaFZ3a-34" value="" style="endArrow=none;html=1;rounded=0;entryX=1;entryY=0.5;entryDx=0;entryDy=0;exitX=0;exitY=0.5;exitDx=0;exitDy=0;" parent="1" source="-MsFzH8xyKUJ2mzaFZ3a-27" target="-MsFzH8xyKUJ2mzaFZ3a-32" edge="1">
          <mxGeometry width="50" height="50" relative="1" as="geometry">
            <mxPoint x="370" y="700" as="sourcePoint" />
            <mxPoint x="140" y="740" as="targetPoint" />
          </mxGeometry>
        </mxCell>
        <mxCell id="-MsFzH8xyKUJ2mzaFZ3a-35" value="Pracownik_zarzadza" style="html=1;whiteSpace=wrap;aspect=fixed;shape=isoRectangle;" parent="1" vertex="1">
          <mxGeometry x="770" y="322.5" width="212.5" height="127.5" as="geometry" />
        </mxCell>
        <mxCell id="-MsFzH8xyKUJ2mzaFZ3a-36" value="" style="endArrow=none;html=1;rounded=0;entryX=0;entryY=1;entryDx=0;entryDy=0;exitX=0.78;exitY=0.272;exitDx=0;exitDy=0;exitPerimeter=0;" parent="1" source="-MsFzH8xyKUJ2mzaFZ3a-35" target="-MsFzH8xyKUJ2mzaFZ3a-10" edge="1">
          <mxGeometry width="50" height="50" relative="1" as="geometry">
            <mxPoint x="730" y="460" as="sourcePoint" />
            <mxPoint x="780" y="410" as="targetPoint" />
          </mxGeometry>
        </mxCell>
        <mxCell id="-MsFzH8xyKUJ2mzaFZ3a-37" value="" style="endArrow=none;html=1;rounded=0;exitX=0;exitY=0;exitDx=0;exitDy=0;entryX=0.78;entryY=0.742;entryDx=0;entryDy=0;entryPerimeter=0;" parent="1" source="-MsFzH8xyKUJ2mzaFZ3a-22" target="-MsFzH8xyKUJ2mzaFZ3a-35" edge="1">
          <mxGeometry width="50" height="50" relative="1" as="geometry">
            <mxPoint x="1110" y="570" as="sourcePoint" />
            <mxPoint x="780" y="410" as="targetPoint" />
          </mxGeometry>
        </mxCell>
        <mxCell id="-MsFzH8xyKUJ2mzaFZ3a-38" value="" style="endArrow=none;html=1;rounded=0;exitX=0;exitY=1;exitDx=0;exitDy=0;entryX=1;entryY=0;entryDx=0;entryDy=0;" parent="1" source="-MsFzH8xyKUJ2mzaFZ3a-24" target="-MsFzH8xyKUJ2mzaFZ3a-22" edge="1">
          <mxGeometry width="50" height="50" relative="1" as="geometry">
            <mxPoint x="730" y="460" as="sourcePoint" />
            <mxPoint x="780" y="410" as="targetPoint" />
          </mxGeometry>
        </mxCell>
        <mxCell id="-MsFzH8xyKUJ2mzaFZ3a-39" value="" style="endArrow=none;html=1;rounded=0;exitX=1;exitY=1;exitDx=0;exitDy=0;entryX=0;entryY=0;entryDx=0;entryDy=0;" parent="1" source="-MsFzH8xyKUJ2mzaFZ3a-22" target="-MsFzH8xyKUJ2mzaFZ3a-25" edge="1">
          <mxGeometry width="50" height="50" relative="1" as="geometry">
            <mxPoint x="1268" y="498" as="sourcePoint" />
            <mxPoint x="1200" y="544" as="targetPoint" />
          </mxGeometry>
        </mxCell>
        <mxCell id="-MsFzH8xyKUJ2mzaFZ3a-40" value="" style="endArrow=none;html=1;rounded=0;exitX=0;exitY=0.5;exitDx=0;exitDy=0;entryX=1;entryY=0.5;entryDx=0;entryDy=0;" parent="1" source="-MsFzH8xyKUJ2mzaFZ3a-23" target="-MsFzH8xyKUJ2mzaFZ3a-22" edge="1">
          <mxGeometry width="50" height="50" relative="1" as="geometry">
            <mxPoint x="1278" y="508" as="sourcePoint" />
            <mxPoint x="1210" y="554" as="targetPoint" />
          </mxGeometry>
        </mxCell>
        <mxCell id="-MsFzH8xyKUJ2mzaFZ3a-41" value="" style="endArrow=none;html=1;rounded=0;entryX=1;entryY=1;entryDx=0;entryDy=0;exitX=0.024;exitY=0.486;exitDx=0;exitDy=0;exitPerimeter=0;" parent="1" source="-MsFzH8xyKUJ2mzaFZ3a-35" target="-MsFzH8xyKUJ2mzaFZ3a-1" edge="1">
          <mxGeometry width="50" height="50" relative="1" as="geometry">
            <mxPoint x="730" y="350" as="sourcePoint" />
            <mxPoint x="780" y="300" as="targetPoint" />
          </mxGeometry>
        </mxCell>
      </root>
    </mxGraphModel>
  </diagram>
  <diagram id="X1dZovLtRe32UdCX6fWq" name="Zadanie2">
    <mxGraphModel dx="2466" dy="2111" grid="1" gridSize="10" guides="1" tooltips="1" connect="1" arrows="1" fold="1" page="1" pageScale="1" pageWidth="827" pageHeight="1169" math="0" shadow="0">
      <root>
        <mxCell id="0" />
        <mxCell id="1" parent="0" />
        <mxCell id="U1Ypln4sm6YRq6TIMki4-1" value="Filmy" style="rounded=0;whiteSpace=wrap;html=1;" parent="1" vertex="1">
          <mxGeometry x="60" y="80" width="120" height="60" as="geometry" />
        </mxCell>
        <mxCell id="U1Ypln4sm6YRq6TIMki4-3" value="tytul" style="ellipse;whiteSpace=wrap;html=1;" parent="1" vertex="1">
          <mxGeometry x="-110" y="-70" width="120" height="80" as="geometry" />
        </mxCell>
        <mxCell id="U1Ypln4sm6YRq6TIMki4-4" value="data_produkcji" style="ellipse;whiteSpace=wrap;html=1;" parent="1" vertex="1">
          <mxGeometry x="310" y="30" width="120" height="80" as="geometry" />
        </mxCell>
        <mxCell id="U1Ypln4sm6YRq6TIMki4-5" value="id" style="ellipse;whiteSpace=wrap;html=1;" parent="1" vertex="1">
          <mxGeometry x="219" y="-70" width="120" height="80" as="geometry" />
        </mxCell>
        <mxCell id="U1Ypln4sm6YRq6TIMki4-6" value="budzet" style="ellipse;whiteSpace=wrap;html=1;" parent="1" vertex="1">
          <mxGeometry x="60" y="-70" width="120" height="80" as="geometry" />
        </mxCell>
        <mxCell id="U1Ypln4sm6YRq6TIMki4-9" value="Wytwornie" style="rounded=0;whiteSpace=wrap;html=1;" parent="1" vertex="1">
          <mxGeometry x="620" y="80" width="120" height="60" as="geometry" />
        </mxCell>
        <mxCell id="U1Ypln4sm6YRq6TIMki4-10" value="data_zalozenia&lt;span style=&quot;color: rgba(0, 0, 0, 0); font-family: monospace; font-size: 0px; text-align: start; text-wrap: nowrap;&quot;&gt;%3CmxGraphModel%3E%3Croot%3E%3CmxCell%20id%3D%220%22%2F%3E%3CmxCell%20id%3D%221%22%20parent%3D%220%22%2F%3E%3CmxCell%20id%3D%222%22%20value%3D%22tytul%22%20style%3D%22ellipse%3BwhiteSpace%3Dwrap%3Bhtml%3D1%3B%22%20vertex%3D%221%22%20parent%3D%221%22%3E%3CmxGeometry%20x%3D%2220%22%20y%3D%22300%22%20width%3D%22120%22%20height%3D%2280%22%20as%3D%22geometry%22%2F%3E%3C%2FmxCell%3E%3C%2Froot%3E%3C%2FmxGraphModel%3E&lt;/span&gt;" style="ellipse;whiteSpace=wrap;html=1;" parent="1" vertex="1">
          <mxGeometry x="720" y="-40" width="120" height="80" as="geometry" />
        </mxCell>
        <mxCell id="U1Ypln4sm6YRq6TIMki4-11" value="nazwa" style="ellipse;whiteSpace=wrap;html=1;" parent="1" vertex="1">
          <mxGeometry x="520" y="-40" width="120" height="80" as="geometry" />
        </mxCell>
        <mxCell id="U1Ypln4sm6YRq6TIMki4-12" value="id" style="ellipse;whiteSpace=wrap;html=1;" parent="1" vertex="1">
          <mxGeometry x="827" y="80" width="120" height="80" as="geometry" />
        </mxCell>
        <mxCell id="U1Ypln4sm6YRq6TIMki4-13" value="Film_Wyprodukowany" style="html=1;whiteSpace=wrap;aspect=fixed;shape=isoRectangle;" parent="1" vertex="1">
          <mxGeometry x="339" y="170" width="150" height="90" as="geometry" />
        </mxCell>
        <mxCell id="U1Ypln4sm6YRq6TIMki4-14" value="" style="endArrow=none;html=1;rounded=0;entryX=0.25;entryY=1;entryDx=0;entryDy=0;exitX=0.72;exitY=0.211;exitDx=0;exitDy=0;exitPerimeter=0;" parent="1" source="U1Ypln4sm6YRq6TIMki4-13" target="U1Ypln4sm6YRq6TIMki4-9" edge="1">
          <mxGeometry width="50" height="50" relative="1" as="geometry">
            <mxPoint x="470" y="280" as="sourcePoint" />
            <mxPoint x="400" y="180" as="targetPoint" />
          </mxGeometry>
        </mxCell>
        <mxCell id="U1Ypln4sm6YRq6TIMki4-15" value="" style="endArrow=none;html=1;rounded=0;entryX=1;entryY=1;entryDx=0;entryDy=0;exitX=0.267;exitY=0.211;exitDx=0;exitDy=0;exitPerimeter=0;" parent="1" source="U1Ypln4sm6YRq6TIMki4-13" target="U1Ypln4sm6YRq6TIMki4-1" edge="1">
          <mxGeometry width="50" height="50" relative="1" as="geometry">
            <mxPoint x="350" y="230" as="sourcePoint" />
            <mxPoint x="400" y="180" as="targetPoint" />
          </mxGeometry>
        </mxCell>
        <mxCell id="U1Ypln4sm6YRq6TIMki4-17" value="Rezyser" style="rounded=0;whiteSpace=wrap;html=1;" parent="1" vertex="1">
          <mxGeometry x="60" y="510" width="120" height="60" as="geometry" />
        </mxCell>
        <mxCell id="U1Ypln4sm6YRq6TIMki4-18" value="nazwisko" style="ellipse;whiteSpace=wrap;html=1;" parent="1" vertex="1">
          <mxGeometry x="160" y="640" width="120" height="80" as="geometry" />
        </mxCell>
        <mxCell id="U1Ypln4sm6YRq6TIMki4-19" value="imie" style="ellipse;whiteSpace=wrap;html=1;" parent="1" vertex="1">
          <mxGeometry x="-160" y="560" width="120" height="80" as="geometry" />
        </mxCell>
        <mxCell id="U1Ypln4sm6YRq6TIMki4-20" value="rok_urodzenia" style="ellipse;whiteSpace=wrap;html=1;" parent="1" vertex="1">
          <mxGeometry x="280" y="560" width="120" height="80" as="geometry" />
        </mxCell>
        <mxCell id="U1Ypln4sm6YRq6TIMki4-21" value="telefon" style="ellipse;whiteSpace=wrap;html=1;" parent="1" vertex="1">
          <mxGeometry x="-120" y="440" width="120" height="80" as="geometry" />
        </mxCell>
        <mxCell id="U1Ypln4sm6YRq6TIMki4-22" value="id" style="ellipse;whiteSpace=wrap;html=1;" parent="1" vertex="1">
          <mxGeometry x="-40" y="640" width="120" height="80" as="geometry" />
        </mxCell>
        <mxCell id="U1Ypln4sm6YRq6TIMki4-24" value="Film_Wyrezyserowany" style="html=1;whiteSpace=wrap;aspect=fixed;shape=isoRectangle;" parent="1" vertex="1">
          <mxGeometry x="45" y="270" width="150" height="90" as="geometry" />
        </mxCell>
        <mxCell id="U1Ypln4sm6YRq6TIMki4-31" value="Aktorzy" style="rounded=0;whiteSpace=wrap;html=1;" parent="1" vertex="1">
          <mxGeometry x="-520" y="360" width="120" height="60" as="geometry" />
        </mxCell>
        <mxCell id="U1Ypln4sm6YRq6TIMki4-32" value="nazwisko" style="ellipse;whiteSpace=wrap;html=1;" parent="1" vertex="1">
          <mxGeometry x="-700" y="300" width="120" height="80" as="geometry" />
        </mxCell>
        <mxCell id="U1Ypln4sm6YRq6TIMki4-33" value="imie" style="ellipse;whiteSpace=wrap;html=1;" parent="1" vertex="1">
          <mxGeometry x="-700" y="440" width="120" height="80" as="geometry" />
        </mxCell>
        <mxCell id="U1Ypln4sm6YRq6TIMki4-34" value="telefon" style="ellipse;whiteSpace=wrap;html=1;" parent="1" vertex="1">
          <mxGeometry x="-550" y="490" width="120" height="80" as="geometry" />
        </mxCell>
        <mxCell id="U1Ypln4sm6YRq6TIMki4-35" value="adres" style="ellipse;whiteSpace=wrap;html=1;" parent="1" vertex="1">
          <mxGeometry x="-370" y="460" width="120" height="80" as="geometry" />
        </mxCell>
        <mxCell id="U1Ypln4sm6YRq6TIMki4-36" value="Aktor_zagral" style="html=1;whiteSpace=wrap;aspect=fixed;shape=isoRectangle;" parent="1" vertex="1">
          <mxGeometry x="-535" y="150" width="150" height="90" as="geometry" />
        </mxCell>
        <mxCell id="U1Ypln4sm6YRq6TIMki4-37" value="Rola" style="rounded=0;whiteSpace=wrap;html=1;" parent="1" vertex="1">
          <mxGeometry x="-520" y="-10" width="120" height="60" as="geometry" />
        </mxCell>
        <mxCell id="U1Ypln4sm6YRq6TIMki4-38" value="id" style="ellipse;whiteSpace=wrap;html=1;" parent="1" vertex="1">
          <mxGeometry x="-620" y="-140" width="120" height="80" as="geometry" />
        </mxCell>
        <mxCell id="U1Ypln4sm6YRq6TIMki4-40" value="gaza" style="ellipse;whiteSpace=wrap;html=1;" parent="1" vertex="1">
          <mxGeometry x="-690" y="-30" width="120" height="80" as="geometry" />
        </mxCell>
        <mxCell id="U1Ypln4sm6YRq6TIMki4-41" value="" style="endArrow=none;html=1;rounded=0;exitX=0.5;exitY=0;exitDx=0;exitDy=0;" parent="1" source="U1Ypln4sm6YRq6TIMki4-31" target="U1Ypln4sm6YRq6TIMki4-36" edge="1">
          <mxGeometry width="50" height="50" relative="1" as="geometry">
            <mxPoint x="-40" y="250" as="sourcePoint" />
            <mxPoint x="10" y="200" as="targetPoint" />
          </mxGeometry>
        </mxCell>
        <mxCell id="U1Ypln4sm6YRq6TIMki4-42" value="" style="endArrow=none;html=1;rounded=0;entryX=0.5;entryY=1;entryDx=0;entryDy=0;exitX=0.491;exitY=0.028;exitDx=0;exitDy=0;exitPerimeter=0;" parent="1" source="U1Ypln4sm6YRq6TIMki4-36" target="U1Ypln4sm6YRq6TIMki4-37" edge="1">
          <mxGeometry width="50" height="50" relative="1" as="geometry">
            <mxPoint x="-40" y="250" as="sourcePoint" />
            <mxPoint x="10" y="200" as="targetPoint" />
          </mxGeometry>
        </mxCell>
        <mxCell id="U1Ypln4sm6YRq6TIMki4-43" value="Rola_w_filmie" style="html=1;whiteSpace=wrap;aspect=fixed;shape=isoRectangle;" parent="1" vertex="1">
          <mxGeometry x="-260" y="65" width="150" height="90" as="geometry" />
        </mxCell>
        <mxCell id="U1Ypln4sm6YRq6TIMki4-44" value="" style="endArrow=none;html=1;rounded=0;entryX=1;entryY=0.75;entryDx=0;entryDy=0;exitX=0.187;exitY=0.345;exitDx=0;exitDy=0;exitPerimeter=0;" parent="1" source="U1Ypln4sm6YRq6TIMki4-43" target="U1Ypln4sm6YRq6TIMki4-37" edge="1">
          <mxGeometry width="50" height="50" relative="1" as="geometry">
            <mxPoint x="-40" y="250" as="sourcePoint" />
            <mxPoint x="10" y="200" as="targetPoint" />
          </mxGeometry>
        </mxCell>
        <mxCell id="U1Ypln4sm6YRq6TIMki4-45" value="" style="endArrow=none;html=1;rounded=0;entryX=0.98;entryY=0.489;entryDx=0;entryDy=0;entryPerimeter=0;exitX=0;exitY=0.5;exitDx=0;exitDy=0;" parent="1" source="U1Ypln4sm6YRq6TIMki4-1" target="U1Ypln4sm6YRq6TIMki4-43" edge="1">
          <mxGeometry width="50" height="50" relative="1" as="geometry">
            <mxPoint x="-40" y="250" as="sourcePoint" />
            <mxPoint x="10" y="200" as="targetPoint" />
          </mxGeometry>
        </mxCell>
        <mxCell id="U1Ypln4sm6YRq6TIMki4-46" value="" style="endArrow=none;html=1;rounded=0;entryX=0.445;entryY=1.002;entryDx=0;entryDy=0;entryPerimeter=0;exitX=0.25;exitY=0;exitDx=0;exitDy=0;" parent="1" source="U1Ypln4sm6YRq6TIMki4-37" target="U1Ypln4sm6YRq6TIMki4-38" edge="1">
          <mxGeometry width="50" height="50" relative="1" as="geometry">
            <mxPoint x="-40" y="250" as="sourcePoint" />
            <mxPoint x="10" y="200" as="targetPoint" />
          </mxGeometry>
        </mxCell>
        <mxCell id="U1Ypln4sm6YRq6TIMki4-47" value="" style="endArrow=none;html=1;rounded=0;entryX=1;entryY=0.5;entryDx=0;entryDy=0;exitX=0;exitY=0.5;exitDx=0;exitDy=0;" parent="1" source="U1Ypln4sm6YRq6TIMki4-37" target="U1Ypln4sm6YRq6TIMki4-40" edge="1">
          <mxGeometry width="50" height="50" relative="1" as="geometry">
            <mxPoint x="-40" y="250" as="sourcePoint" />
            <mxPoint x="10" y="200" as="targetPoint" />
          </mxGeometry>
        </mxCell>
        <mxCell id="U1Ypln4sm6YRq6TIMki4-48" value="" style="endArrow=none;html=1;rounded=0;entryX=1;entryY=0.5;entryDx=0;entryDy=0;exitX=0;exitY=0.5;exitDx=0;exitDy=0;" parent="1" source="U1Ypln4sm6YRq6TIMki4-31" target="U1Ypln4sm6YRq6TIMki4-32" edge="1">
          <mxGeometry width="50" height="50" relative="1" as="geometry">
            <mxPoint x="-40" y="370" as="sourcePoint" />
            <mxPoint x="10" y="320" as="targetPoint" />
          </mxGeometry>
        </mxCell>
        <mxCell id="U1Ypln4sm6YRq6TIMki4-49" value="" style="endArrow=none;html=1;rounded=0;entryX=1;entryY=0;entryDx=0;entryDy=0;exitX=0;exitY=1;exitDx=0;exitDy=0;" parent="1" source="U1Ypln4sm6YRq6TIMki4-31" target="U1Ypln4sm6YRq6TIMki4-33" edge="1">
          <mxGeometry width="50" height="50" relative="1" as="geometry">
            <mxPoint x="-40" y="370" as="sourcePoint" />
            <mxPoint x="10" y="320" as="targetPoint" />
          </mxGeometry>
        </mxCell>
        <mxCell id="U1Ypln4sm6YRq6TIMki4-50" value="" style="endArrow=none;html=1;rounded=0;exitX=0.5;exitY=0;exitDx=0;exitDy=0;entryX=0.421;entryY=0.993;entryDx=0;entryDy=0;entryPerimeter=0;" parent="1" source="U1Ypln4sm6YRq6TIMki4-34" target="U1Ypln4sm6YRq6TIMki4-31" edge="1">
          <mxGeometry width="50" height="50" relative="1" as="geometry">
            <mxPoint x="-40" y="370" as="sourcePoint" />
            <mxPoint x="10" y="320" as="targetPoint" />
          </mxGeometry>
        </mxCell>
        <mxCell id="U1Ypln4sm6YRq6TIMki4-51" value="" style="endArrow=none;html=1;rounded=0;exitX=0;exitY=0;exitDx=0;exitDy=0;entryX=0.891;entryY=1.072;entryDx=0;entryDy=0;entryPerimeter=0;" parent="1" source="U1Ypln4sm6YRq6TIMki4-35" target="U1Ypln4sm6YRq6TIMki4-31" edge="1">
          <mxGeometry width="50" height="50" relative="1" as="geometry">
            <mxPoint x="-480" y="500" as="sourcePoint" />
            <mxPoint x="-459" y="430" as="targetPoint" />
          </mxGeometry>
        </mxCell>
        <mxCell id="y1rl4COpV6NWyZfFGRct-1" value="" style="endArrow=none;html=1;rounded=0;entryX=0.5;entryY=0;entryDx=0;entryDy=0;exitX=0.507;exitY=0.969;exitDx=0;exitDy=0;exitPerimeter=0;" edge="1" parent="1" source="U1Ypln4sm6YRq6TIMki4-24" target="U1Ypln4sm6YRq6TIMki4-17">
          <mxGeometry width="50" height="50" relative="1" as="geometry">
            <mxPoint x="-40" y="370" as="sourcePoint" />
            <mxPoint x="10" y="320" as="targetPoint" />
          </mxGeometry>
        </mxCell>
        <mxCell id="y1rl4COpV6NWyZfFGRct-2" value="" style="endArrow=none;html=1;rounded=0;exitX=0.96;exitY=0.657;exitDx=0;exitDy=0;exitPerimeter=0;entryX=0;entryY=0.25;entryDx=0;entryDy=0;" edge="1" parent="1" source="U1Ypln4sm6YRq6TIMki4-21" target="U1Ypln4sm6YRq6TIMki4-17">
          <mxGeometry width="50" height="50" relative="1" as="geometry">
            <mxPoint x="-40" y="370" as="sourcePoint" />
            <mxPoint x="10" y="320" as="targetPoint" />
          </mxGeometry>
        </mxCell>
        <mxCell id="y1rl4COpV6NWyZfFGRct-3" value="" style="endArrow=none;html=1;rounded=0;exitX=0;exitY=0.75;exitDx=0;exitDy=0;entryX=1;entryY=0.5;entryDx=0;entryDy=0;" edge="1" parent="1" source="U1Ypln4sm6YRq6TIMki4-17" target="U1Ypln4sm6YRq6TIMki4-19">
          <mxGeometry width="50" height="50" relative="1" as="geometry">
            <mxPoint x="5" y="503" as="sourcePoint" />
            <mxPoint x="70" y="535" as="targetPoint" />
          </mxGeometry>
        </mxCell>
        <mxCell id="y1rl4COpV6NWyZfFGRct-4" value="" style="endArrow=none;html=1;rounded=0;exitX=0.25;exitY=1;exitDx=0;exitDy=0;entryX=0.5;entryY=0;entryDx=0;entryDy=0;" edge="1" parent="1" source="U1Ypln4sm6YRq6TIMki4-17" target="U1Ypln4sm6YRq6TIMki4-22">
          <mxGeometry width="50" height="50" relative="1" as="geometry">
            <mxPoint x="15" y="513" as="sourcePoint" />
            <mxPoint x="20" y="630" as="targetPoint" />
          </mxGeometry>
        </mxCell>
        <mxCell id="y1rl4COpV6NWyZfFGRct-5" value="" style="endArrow=none;html=1;rounded=0;exitX=0.75;exitY=1;exitDx=0;exitDy=0;entryX=0;entryY=0;entryDx=0;entryDy=0;" edge="1" parent="1" source="U1Ypln4sm6YRq6TIMki4-17" target="U1Ypln4sm6YRq6TIMki4-18">
          <mxGeometry width="50" height="50" relative="1" as="geometry">
            <mxPoint x="25" y="523" as="sourcePoint" />
            <mxPoint x="90" y="555" as="targetPoint" />
          </mxGeometry>
        </mxCell>
        <mxCell id="y1rl4COpV6NWyZfFGRct-6" value="" style="endArrow=none;html=1;rounded=0;exitX=1;exitY=0.5;exitDx=0;exitDy=0;entryX=0;entryY=0;entryDx=0;entryDy=0;" edge="1" parent="1" source="U1Ypln4sm6YRq6TIMki4-17" target="U1Ypln4sm6YRq6TIMki4-20">
          <mxGeometry width="50" height="50" relative="1" as="geometry">
            <mxPoint x="35" y="533" as="sourcePoint" />
            <mxPoint x="100" y="565" as="targetPoint" />
          </mxGeometry>
        </mxCell>
        <mxCell id="y1rl4COpV6NWyZfFGRct-7" value="" style="endArrow=none;html=1;rounded=0;exitX=1;exitY=1;exitDx=0;exitDy=0;entryX=0;entryY=0;entryDx=0;entryDy=0;" edge="1" parent="1" source="U1Ypln4sm6YRq6TIMki4-3" target="U1Ypln4sm6YRq6TIMki4-1">
          <mxGeometry width="50" height="50" relative="1" as="geometry">
            <mxPoint x="45" y="543" as="sourcePoint" />
            <mxPoint x="110" y="575" as="targetPoint" />
          </mxGeometry>
        </mxCell>
        <mxCell id="y1rl4COpV6NWyZfFGRct-9" value="" style="endArrow=none;html=1;rounded=0;exitX=0.411;exitY=0.943;exitDx=0;exitDy=0;exitPerimeter=0;entryX=0.5;entryY=0;entryDx=0;entryDy=0;" edge="1" parent="1" source="U1Ypln4sm6YRq6TIMki4-6" target="U1Ypln4sm6YRq6TIMki4-1">
          <mxGeometry width="50" height="50" relative="1" as="geometry">
            <mxPoint x="55" y="553" as="sourcePoint" />
            <mxPoint x="120" y="585" as="targetPoint" />
          </mxGeometry>
        </mxCell>
        <mxCell id="y1rl4COpV6NWyZfFGRct-10" value="" style="endArrow=none;html=1;rounded=0;exitX=0;exitY=1;exitDx=0;exitDy=0;entryX=0.75;entryY=0;entryDx=0;entryDy=0;" edge="1" parent="1" source="U1Ypln4sm6YRq6TIMki4-5" target="U1Ypln4sm6YRq6TIMki4-1">
          <mxGeometry width="50" height="50" relative="1" as="geometry">
            <mxPoint x="119" y="15" as="sourcePoint" />
            <mxPoint x="130" y="90" as="targetPoint" />
          </mxGeometry>
        </mxCell>
        <mxCell id="y1rl4COpV6NWyZfFGRct-11" value="" style="endArrow=none;html=1;rounded=0;exitX=0;exitY=0.5;exitDx=0;exitDy=0;entryX=1;entryY=0.25;entryDx=0;entryDy=0;" edge="1" parent="1" source="U1Ypln4sm6YRq6TIMki4-4" target="U1Ypln4sm6YRq6TIMki4-1">
          <mxGeometry width="50" height="50" relative="1" as="geometry">
            <mxPoint x="129" y="25" as="sourcePoint" />
            <mxPoint x="140" y="100" as="targetPoint" />
          </mxGeometry>
        </mxCell>
        <mxCell id="y1rl4COpV6NWyZfFGRct-12" value="" style="endArrow=none;html=1;rounded=0;entryX=0.5;entryY=1;entryDx=0;entryDy=0;exitX=0.499;exitY=0.054;exitDx=0;exitDy=0;exitPerimeter=0;" edge="1" parent="1" source="U1Ypln4sm6YRq6TIMki4-24" target="U1Ypln4sm6YRq6TIMki4-1">
          <mxGeometry width="50" height="50" relative="1" as="geometry">
            <mxPoint x="-40" y="250" as="sourcePoint" />
            <mxPoint x="10" y="200" as="targetPoint" />
          </mxGeometry>
        </mxCell>
        <mxCell id="y1rl4COpV6NWyZfFGRct-13" value="" style="endArrow=none;html=1;rounded=0;entryX=1;entryY=1;entryDx=0;entryDy=0;exitX=0.25;exitY=0;exitDx=0;exitDy=0;" edge="1" parent="1" source="U1Ypln4sm6YRq6TIMki4-9" target="U1Ypln4sm6YRq6TIMki4-11">
          <mxGeometry width="50" height="50" relative="1" as="geometry">
            <mxPoint x="550" y="250" as="sourcePoint" />
            <mxPoint x="600" y="200" as="targetPoint" />
          </mxGeometry>
        </mxCell>
        <mxCell id="y1rl4COpV6NWyZfFGRct-14" value="" style="endArrow=none;html=1;rounded=0;entryX=0;entryY=1;entryDx=0;entryDy=0;exitX=0.75;exitY=0;exitDx=0;exitDy=0;" edge="1" parent="1" source="U1Ypln4sm6YRq6TIMki4-9" target="U1Ypln4sm6YRq6TIMki4-10">
          <mxGeometry width="50" height="50" relative="1" as="geometry">
            <mxPoint x="660" y="90" as="sourcePoint" />
            <mxPoint x="632" y="38" as="targetPoint" />
          </mxGeometry>
        </mxCell>
        <mxCell id="y1rl4COpV6NWyZfFGRct-15" value="" style="endArrow=none;html=1;rounded=0;entryX=0;entryY=0.5;entryDx=0;entryDy=0;exitX=1;exitY=0.5;exitDx=0;exitDy=0;" edge="1" parent="1" source="U1Ypln4sm6YRq6TIMki4-9" target="U1Ypln4sm6YRq6TIMki4-12">
          <mxGeometry width="50" height="50" relative="1" as="geometry">
            <mxPoint x="670" y="100" as="sourcePoint" />
            <mxPoint x="642" y="48" as="targetPoint" />
          </mxGeometry>
        </mxCell>
        <mxCell id="y1rl4COpV6NWyZfFGRct-16" value="id" style="ellipse;whiteSpace=wrap;html=1;" vertex="1" parent="1">
          <mxGeometry x="-340" y="320" width="120" height="80" as="geometry" />
        </mxCell>
        <mxCell id="y1rl4COpV6NWyZfFGRct-18" value="" style="endArrow=none;html=1;rounded=0;exitX=1;exitY=0.5;exitDx=0;exitDy=0;entryX=0;entryY=0.5;entryDx=0;entryDy=0;" edge="1" parent="1" source="U1Ypln4sm6YRq6TIMki4-31" target="y1rl4COpV6NWyZfFGRct-16">
          <mxGeometry width="50" height="50" relative="1" as="geometry">
            <mxPoint x="-380" y="370" as="sourcePoint" />
            <mxPoint x="-330" y="320" as="targetPoint" />
          </mxGeometry>
        </mxCell>
        <mxCell id="y1rl4COpV6NWyZfFGRct-19" value="nazwa" style="ellipse;whiteSpace=wrap;html=1;" vertex="1" parent="1">
          <mxGeometry x="-450" y="-140" width="120" height="80" as="geometry" />
        </mxCell>
        <mxCell id="y1rl4COpV6NWyZfFGRct-20" value="" style="endArrow=none;html=1;rounded=0;entryX=0.5;entryY=1;entryDx=0;entryDy=0;exitX=0.75;exitY=0;exitDx=0;exitDy=0;" edge="1" parent="1" source="U1Ypln4sm6YRq6TIMki4-37" target="y1rl4COpV6NWyZfFGRct-19">
          <mxGeometry width="50" height="50" relative="1" as="geometry">
            <mxPoint x="-380" y="130" as="sourcePoint" />
            <mxPoint x="-330" y="80" as="targetPoint" />
          </mxGeometry>
        </mxCell>
      </root>
    </mxGraphModel>
  </diagram>
  <diagram id="x-N9Txq6E2goj25WxoU_" name="Zadanie3">
    <mxGraphModel dx="2466" dy="942" grid="1" gridSize="10" guides="1" tooltips="1" connect="1" arrows="1" fold="1" page="1" pageScale="1" pageWidth="827" pageHeight="1169" math="0" shadow="0">
      <root>
        <mxCell id="0" />
        <mxCell id="1" parent="0" />
        <mxCell id="92buNBCCcs2IfParb0f--2" value="Drużyny" style="rounded=0;whiteSpace=wrap;html=1;" vertex="1" parent="1">
          <mxGeometry x="120" y="230" width="120" height="60" as="geometry" />
        </mxCell>
        <mxCell id="92buNBCCcs2IfParb0f--3" value="Miasta" style="rounded=0;whiteSpace=wrap;html=1;" vertex="1" parent="1">
          <mxGeometry x="590" y="230" width="120" height="60" as="geometry" />
        </mxCell>
        <mxCell id="92buNBCCcs2IfParb0f--4" value="id" style="ellipse;whiteSpace=wrap;html=1;" vertex="1" parent="1">
          <mxGeometry x="120" y="100" width="120" height="80" as="geometry" />
        </mxCell>
        <mxCell id="92buNBCCcs2IfParb0f--5" value="nazwa" style="ellipse;whiteSpace=wrap;html=1;" vertex="1" parent="1">
          <mxGeometry x="280" y="100" width="120" height="80" as="geometry" />
        </mxCell>
        <mxCell id="92buNBCCcs2IfParb0f--6" value="miasto" style="ellipse;whiteSpace=wrap;html=1;" vertex="1" parent="1">
          <mxGeometry x="-40" y="100" width="120" height="80" as="geometry" />
        </mxCell>
        <mxCell id="92buNBCCcs2IfParb0f--7" value="nazwa" style="ellipse;whiteSpace=wrap;html=1;" vertex="1" parent="1">
          <mxGeometry x="680" y="310" width="120" height="80" as="geometry" />
        </mxCell>
        <mxCell id="92buNBCCcs2IfParb0f--8" value="id" style="ellipse;whiteSpace=wrap;html=1;" vertex="1" parent="1">
          <mxGeometry x="760" y="210" width="120" height="80" as="geometry" />
        </mxCell>
        <mxCell id="92buNBCCcs2IfParb0f--9" value="kraj" style="ellipse;whiteSpace=wrap;html=1;" vertex="1" parent="1">
          <mxGeometry x="640" y="110" width="120" height="80" as="geometry" />
        </mxCell>
        <mxCell id="92buNBCCcs2IfParb0f--11" value="Druzyna_z_miasta" style="html=1;whiteSpace=wrap;aspect=fixed;shape=isoRectangle;" vertex="1" parent="1">
          <mxGeometry x="339" y="215" width="150" height="90" as="geometry" />
        </mxCell>
        <mxCell id="92buNBCCcs2IfParb0f--16" value="" style="endArrow=none;html=1;rounded=0;exitX=1;exitY=0.5;exitDx=0;exitDy=0;entryX=0.02;entryY=0.489;entryDx=0;entryDy=0;entryPerimeter=0;" edge="1" parent="1" source="92buNBCCcs2IfParb0f--2" target="92buNBCCcs2IfParb0f--11">
          <mxGeometry width="50" height="50" relative="1" as="geometry">
            <mxPoint x="390" y="340" as="sourcePoint" />
            <mxPoint x="320" y="260" as="targetPoint" />
          </mxGeometry>
        </mxCell>
        <mxCell id="92buNBCCcs2IfParb0f--17" value="" style="endArrow=none;html=1;rounded=0;entryX=0;entryY=0.5;entryDx=0;entryDy=0;exitX=1;exitY=0.5;exitDx=0;exitDy=0;" edge="1" parent="1" target="92buNBCCcs2IfParb0f--3">
          <mxGeometry width="50" height="50" relative="1" as="geometry">
            <mxPoint x="489" y="259.5" as="sourcePoint" />
            <mxPoint x="585" y="259.5" as="targetPoint" />
          </mxGeometry>
        </mxCell>
        <mxCell id="92buNBCCcs2IfParb0f--32" value="Zawodnicy" style="rounded=0;whiteSpace=wrap;html=1;" vertex="1" parent="1">
          <mxGeometry x="-210" y="545" width="120" height="60" as="geometry" />
        </mxCell>
        <mxCell id="92buNBCCcs2IfParb0f--33" value="imie" style="ellipse;whiteSpace=wrap;html=1;" vertex="1" parent="1">
          <mxGeometry x="-310" y="660" width="120" height="80" as="geometry" />
        </mxCell>
        <mxCell id="92buNBCCcs2IfParb0f--34" value="nazwisko" style="ellipse;whiteSpace=wrap;html=1;" vertex="1" parent="1">
          <mxGeometry x="-160" y="660" width="120" height="80" as="geometry" />
        </mxCell>
        <mxCell id="92buNBCCcs2IfParb0f--35" value="pozycja" style="ellipse;whiteSpace=wrap;html=1;" vertex="1" parent="1">
          <mxGeometry x="-380" y="560" width="120" height="80" as="geometry" />
        </mxCell>
        <mxCell id="92buNBCCcs2IfParb0f--36" value="rok_urodzenia" style="ellipse;whiteSpace=wrap;html=1;" vertex="1" parent="1">
          <mxGeometry x="-380" y="455" width="120" height="80" as="geometry" />
        </mxCell>
        <mxCell id="92buNBCCcs2IfParb0f--37" value="id" style="ellipse;whiteSpace=wrap;html=1;" vertex="1" parent="1">
          <mxGeometry x="-270" y="390" width="120" height="80" as="geometry" />
        </mxCell>
        <mxCell id="92buNBCCcs2IfParb0f--38" value="Sezon" style="rounded=0;whiteSpace=wrap;html=1;" vertex="1" parent="1">
          <mxGeometry x="590" y="510" width="120" height="60" as="geometry" />
        </mxCell>
        <mxCell id="92buNBCCcs2IfParb0f--39" value="data_rozp" style="ellipse;whiteSpace=wrap;html=1;" vertex="1" parent="1">
          <mxGeometry x="580" y="620" width="120" height="80" as="geometry" />
        </mxCell>
        <mxCell id="92buNBCCcs2IfParb0f--40" value="data_zak" style="ellipse;whiteSpace=wrap;html=1;" vertex="1" parent="1">
          <mxGeometry x="740" y="600" width="120" height="80" as="geometry" />
        </mxCell>
        <mxCell id="92buNBCCcs2IfParb0f--41" value="id" style="ellipse;whiteSpace=wrap;html=1;" vertex="1" parent="1">
          <mxGeometry x="760" y="470" width="120" height="80" as="geometry" />
        </mxCell>
        <mxCell id="92buNBCCcs2IfParb0f--42" value="Mecze" style="rounded=0;whiteSpace=wrap;html=1;" vertex="1" parent="1">
          <mxGeometry x="210" y="580" width="120" height="60" as="geometry" />
        </mxCell>
        <mxCell id="92buNBCCcs2IfParb0f--43" value="id" style="ellipse;whiteSpace=wrap;html=1;" vertex="1" parent="1">
          <mxGeometry x="170" y="685" width="120" height="80" as="geometry" />
        </mxCell>
        <mxCell id="92buNBCCcs2IfParb0f--44" value="data" style="ellipse;whiteSpace=wrap;html=1;" vertex="1" parent="1">
          <mxGeometry x="320" y="685" width="120" height="80" as="geometry" />
        </mxCell>
        <mxCell id="92buNBCCcs2IfParb0f--45" value="godzina" style="ellipse;whiteSpace=wrap;html=1;" vertex="1" parent="1">
          <mxGeometry x="354" y="585" width="120" height="80" as="geometry" />
        </mxCell>
        <mxCell id="92buNBCCcs2IfParb0f--46" value="czy_gosp" style="ellipse;whiteSpace=wrap;html=1;" vertex="1" parent="1">
          <mxGeometry x="60" y="605" width="120" height="80" as="geometry" />
        </mxCell>
        <mxCell id="92buNBCCcs2IfParb0f--47" value="Zawodnicy_w_druzynie" style="html=1;whiteSpace=wrap;aspect=fixed;shape=isoRectangle;" vertex="1" parent="1">
          <mxGeometry x="-225" y="260" width="150" height="90" as="geometry" />
        </mxCell>
        <mxCell id="92buNBCCcs2IfParb0f--48" value="" style="endArrow=none;html=1;rounded=0;entryX=0.513;entryY=0.967;entryDx=0;entryDy=0;entryPerimeter=0;exitX=0.75;exitY=0;exitDx=0;exitDy=0;" edge="1" parent="1" source="92buNBCCcs2IfParb0f--32" target="92buNBCCcs2IfParb0f--47">
          <mxGeometry width="50" height="50" relative="1" as="geometry">
            <mxPoint x="200" y="540" as="sourcePoint" />
            <mxPoint x="250" y="490" as="targetPoint" />
          </mxGeometry>
        </mxCell>
        <mxCell id="92buNBCCcs2IfParb0f--49" value="" style="endArrow=none;html=1;rounded=0;entryX=0;entryY=0.5;entryDx=0;entryDy=0;exitX=0.993;exitY=0.489;exitDx=0;exitDy=0;exitPerimeter=0;" edge="1" parent="1" source="92buNBCCcs2IfParb0f--47" target="92buNBCCcs2IfParb0f--2">
          <mxGeometry width="50" height="50" relative="1" as="geometry">
            <mxPoint x="200" y="440" as="sourcePoint" />
            <mxPoint x="250" y="390" as="targetPoint" />
          </mxGeometry>
        </mxCell>
        <mxCell id="92buNBCCcs2IfParb0f--50" value="Mecze_rozgrywane&lt;div&gt;przez druzyny&lt;/div&gt;" style="html=1;whiteSpace=wrap;aspect=fixed;shape=isoRectangle;" vertex="1" parent="1">
          <mxGeometry x="105" y="400" width="150" height="90" as="geometry" />
        </mxCell>
        <mxCell id="92buNBCCcs2IfParb0f--51" value="" style="endArrow=none;html=1;rounded=0;entryX=0.5;entryY=1;entryDx=0;entryDy=0;exitX=0.507;exitY=0.044;exitDx=0;exitDy=0;exitPerimeter=0;" edge="1" parent="1" source="92buNBCCcs2IfParb0f--50" target="92buNBCCcs2IfParb0f--2">
          <mxGeometry width="50" height="50" relative="1" as="geometry">
            <mxPoint x="200" y="540" as="sourcePoint" />
            <mxPoint x="250" y="490" as="targetPoint" />
          </mxGeometry>
        </mxCell>
        <mxCell id="92buNBCCcs2IfParb0f--52" value="" style="endArrow=none;html=1;rounded=0;entryX=0.507;entryY=0.944;entryDx=0;entryDy=0;entryPerimeter=0;exitX=0.25;exitY=0;exitDx=0;exitDy=0;" edge="1" parent="1" source="92buNBCCcs2IfParb0f--42" target="92buNBCCcs2IfParb0f--50">
          <mxGeometry width="50" height="50" relative="1" as="geometry">
            <mxPoint x="250" y="586.98" as="sourcePoint" />
            <mxPoint x="230" y="535" as="targetPoint" />
          </mxGeometry>
        </mxCell>
        <mxCell id="92buNBCCcs2IfParb0f--53" value="Mecze w sezonie" style="html=1;whiteSpace=wrap;aspect=fixed;shape=isoRectangle;" vertex="1" parent="1">
          <mxGeometry x="339" y="445" width="150" height="90" as="geometry" />
        </mxCell>
        <mxCell id="92buNBCCcs2IfParb0f--54" value="" style="endArrow=none;html=1;rounded=0;exitX=1;exitY=0;exitDx=0;exitDy=0;entryX=0.347;entryY=0.844;entryDx=0;entryDy=0;entryPerimeter=0;" edge="1" parent="1" source="92buNBCCcs2IfParb0f--42" target="92buNBCCcs2IfParb0f--53">
          <mxGeometry width="50" height="50" relative="1" as="geometry">
            <mxPoint x="500" y="540" as="sourcePoint" />
            <mxPoint x="550" y="490" as="targetPoint" />
          </mxGeometry>
        </mxCell>
        <mxCell id="92buNBCCcs2IfParb0f--56" value="" style="endArrow=none;html=1;rounded=0;entryX=0.96;entryY=0.578;entryDx=0;entryDy=0;entryPerimeter=0;exitX=0;exitY=0.5;exitDx=0;exitDy=0;" edge="1" parent="1" source="92buNBCCcs2IfParb0f--38" target="92buNBCCcs2IfParb0f--53">
          <mxGeometry width="50" height="50" relative="1" as="geometry">
            <mxPoint x="500" y="540" as="sourcePoint" />
            <mxPoint x="550" y="490" as="targetPoint" />
          </mxGeometry>
        </mxCell>
        <mxCell id="92buNBCCcs2IfParb0f--59" value="" style="endArrow=none;html=1;rounded=0;entryX=0.5;entryY=1;entryDx=0;entryDy=0;exitX=0.75;exitY=0;exitDx=0;exitDy=0;" edge="1" parent="1" source="92buNBCCcs2IfParb0f--3" target="92buNBCCcs2IfParb0f--9">
          <mxGeometry width="50" height="50" relative="1" as="geometry">
            <mxPoint x="500" y="440" as="sourcePoint" />
            <mxPoint x="550" y="390" as="targetPoint" />
          </mxGeometry>
        </mxCell>
        <mxCell id="92buNBCCcs2IfParb0f--60" value="" style="endArrow=none;html=1;rounded=0;entryX=0;entryY=0.5;entryDx=0;entryDy=0;exitX=1;exitY=0.5;exitDx=0;exitDy=0;" edge="1" parent="1" source="92buNBCCcs2IfParb0f--3" target="92buNBCCcs2IfParb0f--8">
          <mxGeometry width="50" height="50" relative="1" as="geometry">
            <mxPoint x="500" y="440" as="sourcePoint" />
            <mxPoint x="550" y="390" as="targetPoint" />
          </mxGeometry>
        </mxCell>
        <mxCell id="92buNBCCcs2IfParb0f--61" value="" style="endArrow=none;html=1;rounded=0;entryX=0.75;entryY=1;entryDx=0;entryDy=0;exitX=0;exitY=0;exitDx=0;exitDy=0;" edge="1" parent="1" source="92buNBCCcs2IfParb0f--7" target="92buNBCCcs2IfParb0f--3">
          <mxGeometry width="50" height="50" relative="1" as="geometry">
            <mxPoint x="500" y="440" as="sourcePoint" />
            <mxPoint x="550" y="390" as="targetPoint" />
          </mxGeometry>
        </mxCell>
        <mxCell id="92buNBCCcs2IfParb0f--62" value="" style="endArrow=none;html=1;rounded=0;entryX=0;entryY=1;entryDx=0;entryDy=0;exitX=0.75;exitY=0;exitDx=0;exitDy=0;" edge="1" parent="1" source="92buNBCCcs2IfParb0f--2" target="92buNBCCcs2IfParb0f--5">
          <mxGeometry width="50" height="50" relative="1" as="geometry">
            <mxPoint x="500" y="340" as="sourcePoint" />
            <mxPoint x="550" y="290" as="targetPoint" />
          </mxGeometry>
        </mxCell>
        <mxCell id="92buNBCCcs2IfParb0f--63" value="" style="endArrow=none;html=1;rounded=0;entryX=0.5;entryY=1;entryDx=0;entryDy=0;exitX=0.5;exitY=0;exitDx=0;exitDy=0;" edge="1" parent="1" source="92buNBCCcs2IfParb0f--2" target="92buNBCCcs2IfParb0f--4">
          <mxGeometry width="50" height="50" relative="1" as="geometry">
            <mxPoint x="220" y="240" as="sourcePoint" />
            <mxPoint x="308" y="178" as="targetPoint" />
          </mxGeometry>
        </mxCell>
        <mxCell id="92buNBCCcs2IfParb0f--64" value="" style="endArrow=none;html=1;rounded=0;entryX=1;entryY=1;entryDx=0;entryDy=0;exitX=0.25;exitY=0;exitDx=0;exitDy=0;" edge="1" parent="1" source="92buNBCCcs2IfParb0f--2" target="92buNBCCcs2IfParb0f--6">
          <mxGeometry width="50" height="50" relative="1" as="geometry">
            <mxPoint x="190" y="240" as="sourcePoint" />
            <mxPoint x="190" y="190" as="targetPoint" />
          </mxGeometry>
        </mxCell>
        <mxCell id="92buNBCCcs2IfParb0f--65" value="" style="endArrow=none;html=1;rounded=0;entryX=1;entryY=0;entryDx=0;entryDy=0;" edge="1" parent="1" source="92buNBCCcs2IfParb0f--41" target="92buNBCCcs2IfParb0f--38">
          <mxGeometry width="50" height="50" relative="1" as="geometry">
            <mxPoint x="708" y="332" as="sourcePoint" />
            <mxPoint x="690" y="300" as="targetPoint" />
          </mxGeometry>
        </mxCell>
        <mxCell id="92buNBCCcs2IfParb0f--66" value="" style="endArrow=none;html=1;rounded=0;entryX=1;entryY=1;entryDx=0;entryDy=0;exitX=0;exitY=0;exitDx=0;exitDy=0;" edge="1" parent="1" source="92buNBCCcs2IfParb0f--40" target="92buNBCCcs2IfParb0f--38">
          <mxGeometry width="50" height="50" relative="1" as="geometry">
            <mxPoint x="770" y="520" as="sourcePoint" />
            <mxPoint x="720" y="520" as="targetPoint" />
          </mxGeometry>
        </mxCell>
        <mxCell id="92buNBCCcs2IfParb0f--67" value="" style="endArrow=none;html=1;rounded=0;entryX=0.5;entryY=1;entryDx=0;entryDy=0;exitX=0.5;exitY=0;exitDx=0;exitDy=0;" edge="1" parent="1" source="92buNBCCcs2IfParb0f--39" target="92buNBCCcs2IfParb0f--38">
          <mxGeometry width="50" height="50" relative="1" as="geometry">
            <mxPoint x="768" y="622" as="sourcePoint" />
            <mxPoint x="720" y="580" as="targetPoint" />
          </mxGeometry>
        </mxCell>
        <mxCell id="92buNBCCcs2IfParb0f--68" value="" style="endArrow=none;html=1;rounded=0;entryX=0;entryY=0.5;entryDx=0;entryDy=0;exitX=1;exitY=0.75;exitDx=0;exitDy=0;" edge="1" parent="1" source="92buNBCCcs2IfParb0f--42" target="92buNBCCcs2IfParb0f--45">
          <mxGeometry width="50" height="50" relative="1" as="geometry">
            <mxPoint x="300" y="540" as="sourcePoint" />
            <mxPoint x="350" y="490" as="targetPoint" />
          </mxGeometry>
        </mxCell>
        <mxCell id="92buNBCCcs2IfParb0f--69" value="" style="endArrow=none;html=1;rounded=0;entryX=0;entryY=0;entryDx=0;entryDy=0;exitX=0.75;exitY=1;exitDx=0;exitDy=0;" edge="1" parent="1" source="92buNBCCcs2IfParb0f--42" target="92buNBCCcs2IfParb0f--44">
          <mxGeometry width="50" height="50" relative="1" as="geometry">
            <mxPoint x="340" y="635" as="sourcePoint" />
            <mxPoint x="364" y="635" as="targetPoint" />
          </mxGeometry>
        </mxCell>
        <mxCell id="92buNBCCcs2IfParb0f--70" value="" style="endArrow=none;html=1;rounded=0;entryX=0.5;entryY=0;entryDx=0;entryDy=0;exitX=0.308;exitY=1;exitDx=0;exitDy=0;exitPerimeter=0;" edge="1" parent="1" source="92buNBCCcs2IfParb0f--42" target="92buNBCCcs2IfParb0f--43">
          <mxGeometry width="50" height="50" relative="1" as="geometry">
            <mxPoint x="310" y="650" as="sourcePoint" />
            <mxPoint x="348" y="707" as="targetPoint" />
          </mxGeometry>
        </mxCell>
        <mxCell id="92buNBCCcs2IfParb0f--71" value="" style="endArrow=none;html=1;rounded=0;entryX=1;entryY=0;entryDx=0;entryDy=0;exitX=0;exitY=0.5;exitDx=0;exitDy=0;" edge="1" parent="1" source="92buNBCCcs2IfParb0f--42" target="92buNBCCcs2IfParb0f--46">
          <mxGeometry width="50" height="50" relative="1" as="geometry">
            <mxPoint x="190" y="595.39" as="sourcePoint" />
            <mxPoint x="192.42640687119274" y="654.6057287525383" as="targetPoint" />
          </mxGeometry>
        </mxCell>
        <mxCell id="92buNBCCcs2IfParb0f--72" value="" style="endArrow=none;html=1;rounded=0;entryX=0.5;entryY=0;entryDx=0;entryDy=0;exitX=0.75;exitY=1;exitDx=0;exitDy=0;" edge="1" parent="1" source="92buNBCCcs2IfParb0f--32" target="92buNBCCcs2IfParb0f--34">
          <mxGeometry width="50" height="50" relative="1" as="geometry">
            <mxPoint x="220" y="620" as="sourcePoint" />
            <mxPoint x="172" y="627" as="targetPoint" />
          </mxGeometry>
        </mxCell>
        <mxCell id="92buNBCCcs2IfParb0f--73" value="" style="endArrow=none;html=1;rounded=0;entryX=1;entryY=0;entryDx=0;entryDy=0;exitX=0.25;exitY=1;exitDx=0;exitDy=0;" edge="1" parent="1" source="92buNBCCcs2IfParb0f--32" target="92buNBCCcs2IfParb0f--33">
          <mxGeometry width="50" height="50" relative="1" as="geometry">
            <mxPoint x="-110" y="615" as="sourcePoint" />
            <mxPoint x="-90" y="670" as="targetPoint" />
          </mxGeometry>
        </mxCell>
        <mxCell id="92buNBCCcs2IfParb0f--74" value="" style="endArrow=none;html=1;rounded=0;entryX=0;entryY=0.75;entryDx=0;entryDy=0;exitX=1;exitY=0.5;exitDx=0;exitDy=0;" edge="1" parent="1" source="92buNBCCcs2IfParb0f--35" target="92buNBCCcs2IfParb0f--32">
          <mxGeometry width="50" height="50" relative="1" as="geometry">
            <mxPoint x="-170" y="615" as="sourcePoint" />
            <mxPoint x="-198" y="682" as="targetPoint" />
          </mxGeometry>
        </mxCell>
        <mxCell id="92buNBCCcs2IfParb0f--75" value="" style="endArrow=none;html=1;rounded=0;entryX=1;entryY=1;entryDx=0;entryDy=0;exitX=0;exitY=0.25;exitDx=0;exitDy=0;" edge="1" parent="1" source="92buNBCCcs2IfParb0f--32" target="92buNBCCcs2IfParb0f--36">
          <mxGeometry width="50" height="50" relative="1" as="geometry">
            <mxPoint x="-250" y="610" as="sourcePoint" />
            <mxPoint x="-200" y="600" as="targetPoint" />
          </mxGeometry>
        </mxCell>
        <mxCell id="92buNBCCcs2IfParb0f--76" value="" style="endArrow=none;html=1;rounded=0;entryX=0.5;entryY=1;entryDx=0;entryDy=0;exitX=0.25;exitY=0;exitDx=0;exitDy=0;" edge="1" parent="1" source="92buNBCCcs2IfParb0f--32" target="92buNBCCcs2IfParb0f--37">
          <mxGeometry width="50" height="50" relative="1" as="geometry">
            <mxPoint x="-200" y="570" as="sourcePoint" />
            <mxPoint x="-268" y="533" as="targetPoint" />
          </mxGeometry>
        </mxCell>
      </root>
    </mxGraphModel>
  </diagram>
  <diagram id="DGz87pL6ntCWPKdBJk-h" name="Zadanie4">
    <mxGraphModel dx="2466" dy="2111" grid="1" gridSize="10" guides="1" tooltips="1" connect="1" arrows="1" fold="1" page="1" pageScale="1" pageWidth="827" pageHeight="1169" math="0" shadow="0">
      <root>
        <mxCell id="0" />
        <mxCell id="1" parent="0" />
        <mxCell id="2Qd5O2qRDvd94ITP7LHX-2" value="Pacjenci" style="rounded=0;whiteSpace=wrap;html=1;" vertex="1" parent="1">
          <mxGeometry x="60" y="165" width="120" height="60" as="geometry" />
        </mxCell>
        <mxCell id="2Qd5O2qRDvd94ITP7LHX-3" value="id" style="ellipse;whiteSpace=wrap;html=1;" vertex="1" parent="1">
          <mxGeometry x="-70" y="50" width="120" height="80" as="geometry" />
        </mxCell>
        <mxCell id="2Qd5O2qRDvd94ITP7LHX-5" value="Gatunek" style="rounded=0;whiteSpace=wrap;html=1;" vertex="1" parent="1">
          <mxGeometry x="-330" y="165" width="120" height="60" as="geometry" />
        </mxCell>
        <mxCell id="2Qd5O2qRDvd94ITP7LHX-6" value="Pacjenci_maja_&lt;div&gt;okreslony_&lt;span style=&quot;background-color: initial;&quot;&gt;gatunek&lt;/span&gt;&lt;/div&gt;" style="html=1;whiteSpace=wrap;aspect=fixed;shape=isoRectangle;" vertex="1" parent="1">
          <mxGeometry x="-140" y="150" width="150" height="90" as="geometry" />
        </mxCell>
        <mxCell id="2Qd5O2qRDvd94ITP7LHX-7" value="" style="endArrow=none;html=1;rounded=0;exitX=0;exitY=0.5;exitDx=0;exitDy=0;" edge="1" parent="1" source="2Qd5O2qRDvd94ITP7LHX-2">
          <mxGeometry width="50" height="50" relative="1" as="geometry">
            <mxPoint x="150" y="340" as="sourcePoint" />
            <mxPoint x="10" y="195" as="targetPoint" />
          </mxGeometry>
        </mxCell>
        <mxCell id="2Qd5O2qRDvd94ITP7LHX-8" value="" style="endArrow=none;html=1;rounded=0;entryX=1;entryY=0.5;entryDx=0;entryDy=0;exitX=-0.007;exitY=0.5;exitDx=0;exitDy=0;exitPerimeter=0;" edge="1" parent="1" source="2Qd5O2qRDvd94ITP7LHX-6" target="2Qd5O2qRDvd94ITP7LHX-5">
          <mxGeometry width="50" height="50" relative="1" as="geometry">
            <mxPoint x="150" y="340" as="sourcePoint" />
            <mxPoint x="200" y="290" as="targetPoint" />
          </mxGeometry>
        </mxCell>
        <mxCell id="2Qd5O2qRDvd94ITP7LHX-9" value="id" style="ellipse;whiteSpace=wrap;html=1;" vertex="1" parent="1">
          <mxGeometry x="-413" y="50" width="120" height="80" as="geometry" />
        </mxCell>
        <mxCell id="2Qd5O2qRDvd94ITP7LHX-10" value="nazwa" style="ellipse;whiteSpace=wrap;html=1;" vertex="1" parent="1">
          <mxGeometry x="-240" y="50" width="120" height="80" as="geometry" />
        </mxCell>
        <mxCell id="2Qd5O2qRDvd94ITP7LHX-11" value="" style="endArrow=none;html=1;rounded=0;entryX=0;entryY=1;entryDx=0;entryDy=0;exitX=0.75;exitY=0;exitDx=0;exitDy=0;" edge="1" parent="1" source="2Qd5O2qRDvd94ITP7LHX-5" target="2Qd5O2qRDvd94ITP7LHX-10">
          <mxGeometry width="50" height="50" relative="1" as="geometry">
            <mxPoint x="150" y="340" as="sourcePoint" />
            <mxPoint x="200" y="290" as="targetPoint" />
          </mxGeometry>
        </mxCell>
        <mxCell id="2Qd5O2qRDvd94ITP7LHX-12" value="" style="endArrow=none;html=1;rounded=0;entryX=1;entryY=1;entryDx=0;entryDy=0;exitX=0.25;exitY=0;exitDx=0;exitDy=0;" edge="1" parent="1" source="2Qd5O2qRDvd94ITP7LHX-5" target="2Qd5O2qRDvd94ITP7LHX-9">
          <mxGeometry width="50" height="50" relative="1" as="geometry">
            <mxPoint x="150" y="340" as="sourcePoint" />
            <mxPoint x="200" y="290" as="targetPoint" />
          </mxGeometry>
        </mxCell>
        <mxCell id="2Qd5O2qRDvd94ITP7LHX-13" value="rok_urodzenia" style="ellipse;whiteSpace=wrap;html=1;" vertex="1" parent="1">
          <mxGeometry x="60" y="20" width="120" height="80" as="geometry" />
        </mxCell>
        <mxCell id="2Qd5O2qRDvd94ITP7LHX-14" value="imie" style="ellipse;whiteSpace=wrap;html=1;" vertex="1" parent="1">
          <mxGeometry x="200" y="50" width="120" height="80" as="geometry" />
        </mxCell>
        <mxCell id="2Qd5O2qRDvd94ITP7LHX-16" value="" style="endArrow=none;html=1;rounded=0;entryX=1;entryY=1;entryDx=0;entryDy=0;" edge="1" parent="1" target="2Qd5O2qRDvd94ITP7LHX-3">
          <mxGeometry width="50" height="50" relative="1" as="geometry">
            <mxPoint x="60" y="160" as="sourcePoint" />
            <mxPoint x="42" y="120" as="targetPoint" />
          </mxGeometry>
        </mxCell>
        <mxCell id="2Qd5O2qRDvd94ITP7LHX-17" value="" style="endArrow=none;html=1;rounded=0;entryX=0.5;entryY=1;entryDx=0;entryDy=0;exitX=0.5;exitY=0;exitDx=0;exitDy=0;" edge="1" parent="1" source="2Qd5O2qRDvd94ITP7LHX-2" target="2Qd5O2qRDvd94ITP7LHX-13">
          <mxGeometry width="50" height="50" relative="1" as="geometry">
            <mxPoint x="150" y="340" as="sourcePoint" />
            <mxPoint x="200" y="290" as="targetPoint" />
          </mxGeometry>
        </mxCell>
        <mxCell id="2Qd5O2qRDvd94ITP7LHX-18" value="" style="endArrow=none;html=1;rounded=0;entryX=0;entryY=1;entryDx=0;entryDy=0;exitX=1;exitY=0;exitDx=0;exitDy=0;" edge="1" parent="1" source="2Qd5O2qRDvd94ITP7LHX-2" target="2Qd5O2qRDvd94ITP7LHX-14">
          <mxGeometry width="50" height="50" relative="1" as="geometry">
            <mxPoint x="150" y="340" as="sourcePoint" />
            <mxPoint x="200" y="290" as="targetPoint" />
          </mxGeometry>
        </mxCell>
        <mxCell id="2Qd5O2qRDvd94ITP7LHX-20" value="Pacjenci_maja&lt;div&gt;wlascicieli&lt;/div&gt;" style="html=1;whiteSpace=wrap;aspect=fixed;shape=isoRectangle;" vertex="1" parent="1">
          <mxGeometry x="45" y="310" width="150" height="90" as="geometry" />
        </mxCell>
        <mxCell id="2Qd5O2qRDvd94ITP7LHX-21" value="" style="endArrow=none;html=1;rounded=0;entryX=0.5;entryY=1;entryDx=0;entryDy=0;exitX=0.5;exitY=0;exitDx=0;exitDy=0;exitPerimeter=0;" edge="1" parent="1" source="2Qd5O2qRDvd94ITP7LHX-20" target="2Qd5O2qRDvd94ITP7LHX-2">
          <mxGeometry width="50" height="50" relative="1" as="geometry">
            <mxPoint x="150" y="440" as="sourcePoint" />
            <mxPoint x="200" y="390" as="targetPoint" />
          </mxGeometry>
        </mxCell>
        <mxCell id="2Qd5O2qRDvd94ITP7LHX-22" value="" style="endArrow=none;html=1;rounded=0;entryX=0.493;entryY=1;entryDx=0;entryDy=0;entryPerimeter=0;exitX=0.5;exitY=0;exitDx=0;exitDy=0;" edge="1" parent="1" source="2Qd5O2qRDvd94ITP7LHX-78" target="2Qd5O2qRDvd94ITP7LHX-20">
          <mxGeometry width="50" height="50" relative="1" as="geometry">
            <mxPoint x="10" y="420" as="sourcePoint" />
            <mxPoint x="200" y="390" as="targetPoint" />
          </mxGeometry>
        </mxCell>
        <mxCell id="2Qd5O2qRDvd94ITP7LHX-36" value="Wizyty" style="rounded=0;whiteSpace=wrap;html=1;" vertex="1" parent="1">
          <mxGeometry x="560" y="180" width="120" height="60" as="geometry" />
        </mxCell>
        <mxCell id="2Qd5O2qRDvd94ITP7LHX-37" value="Lekarze w ramach swoich obowiązków przyjmują określonych pacjentów (wizyty). Wizyty mają miejsce w określonym dniu i o&#xa;określonej godzinie, mogą mieć różny charakter, tj. w ich trakcie mogą być podejmowanie różne działania mające różny&#xa;charakter, mogą to być badania, zabiegi i operacje.&#xa; Oczywiście za każdą wizytę lecznica wystawia rachunki (nr, data, kwota) właścicielom pacjentów.&#xa; Chcemy wiedzieć jacy lekarze jakich pacjentów przyjmowali w ramach wizyt oraz jakie działania podjęto w stosunku do tych&#xa;pacjentów i przez kogo (jakich lekarzy) były one wykonywane.&#xa; W związku z tym, że różne działania wymagają różnych umiejętności, niekoniecznie osoba przyjmująca pacjenta będzie&#xa;podejmowała wszystkie działania w ramach wizyt" style="text;whiteSpace=wrap;html=1;" vertex="1" parent="1">
          <mxGeometry x="414" y="-200" width="560" height="210" as="geometry" />
        </mxCell>
        <mxCell id="2Qd5O2qRDvd94ITP7LHX-38" value="id" style="ellipse;whiteSpace=wrap;html=1;" vertex="1" parent="1">
          <mxGeometry x="680" y="30" width="120" height="80" as="geometry" />
        </mxCell>
        <mxCell id="2Qd5O2qRDvd94ITP7LHX-39" value="data" style="ellipse;whiteSpace=wrap;html=1;" vertex="1" parent="1">
          <mxGeometry x="414" y="80" width="120" height="80" as="geometry" />
        </mxCell>
        <mxCell id="2Qd5O2qRDvd94ITP7LHX-40" value="godzina" style="ellipse;whiteSpace=wrap;html=1;" vertex="1" parent="1">
          <mxGeometry x="770" y="120" width="120" height="80" as="geometry" />
        </mxCell>
        <mxCell id="2Qd5O2qRDvd94ITP7LHX-41" value="charakter" style="ellipse;whiteSpace=wrap;html=1;" vertex="1" parent="1">
          <mxGeometry x="540" y="30" width="120" height="80" as="geometry" />
        </mxCell>
        <mxCell id="2Qd5O2qRDvd94ITP7LHX-52" value="id" style="ellipse;whiteSpace=wrap;html=1;" vertex="1" parent="1">
          <mxGeometry x="-120" y="486" width="120" height="80" as="geometry" />
        </mxCell>
        <mxCell id="2Qd5O2qRDvd94ITP7LHX-53" value="imie" style="ellipse;whiteSpace=wrap;html=1;" vertex="1" parent="1">
          <mxGeometry x="160" y="580" width="120" height="80" as="geometry" />
        </mxCell>
        <mxCell id="2Qd5O2qRDvd94ITP7LHX-58" value="Wlasciele_otrzymuja" style="html=1;whiteSpace=wrap;aspect=fixed;shape=isoRectangle;" vertex="1" parent="1">
          <mxGeometry x="270" y="465" width="150" height="90" as="geometry" />
        </mxCell>
        <mxCell id="2Qd5O2qRDvd94ITP7LHX-59" value="" style="endArrow=none;html=1;rounded=0;exitX=0;exitY=0.5;exitDx=0;exitDy=0;entryX=1;entryY=0.489;entryDx=0;entryDy=0;entryPerimeter=0;" edge="1" parent="1" source="2Qd5O2qRDvd94ITP7LHX-76" target="2Qd5O2qRDvd94ITP7LHX-58">
          <mxGeometry width="50" height="50" relative="1" as="geometry">
            <mxPoint x="320" y="385" as="sourcePoint" />
            <mxPoint x="250" y="370" as="targetPoint" />
          </mxGeometry>
        </mxCell>
        <mxCell id="2Qd5O2qRDvd94ITP7LHX-60" value="" style="endArrow=none;html=1;rounded=0;entryX=1;entryY=0.5;entryDx=0;entryDy=0;exitX=0.033;exitY=0.522;exitDx=0;exitDy=0;exitPerimeter=0;" edge="1" parent="1" source="2Qd5O2qRDvd94ITP7LHX-58" target="2Qd5O2qRDvd94ITP7LHX-78">
          <mxGeometry width="50" height="50" relative="1" as="geometry">
            <mxPoint x="430" y="400" as="sourcePoint" />
            <mxPoint x="40" y="450" as="targetPoint" />
            <Array as="points" />
          </mxGeometry>
        </mxCell>
        <mxCell id="2Qd5O2qRDvd94ITP7LHX-61" value="Pacjencji_maja" style="html=1;whiteSpace=wrap;aspect=fixed;shape=isoRectangle;" vertex="1" parent="1">
          <mxGeometry x="310" y="165" width="150" height="90" as="geometry" />
        </mxCell>
        <mxCell id="2Qd5O2qRDvd94ITP7LHX-62" value="" style="endArrow=none;html=1;rounded=0;entryX=0;entryY=0.5;entryDx=0;entryDy=0;exitX=0.993;exitY=0.489;exitDx=0;exitDy=0;exitPerimeter=0;" edge="1" parent="1" source="2Qd5O2qRDvd94ITP7LHX-61" target="2Qd5O2qRDvd94ITP7LHX-36">
          <mxGeometry width="50" height="50" relative="1" as="geometry">
            <mxPoint x="430" y="300" as="sourcePoint" />
            <mxPoint x="480" y="250" as="targetPoint" />
          </mxGeometry>
        </mxCell>
        <mxCell id="2Qd5O2qRDvd94ITP7LHX-63" value="" style="endArrow=none;html=1;rounded=0;entryX=0.027;entryY=0.5;entryDx=0;entryDy=0;exitX=1;exitY=0.75;exitDx=0;exitDy=0;entryPerimeter=0;" edge="1" parent="1" source="2Qd5O2qRDvd94ITP7LHX-2" target="2Qd5O2qRDvd94ITP7LHX-61">
          <mxGeometry width="50" height="50" relative="1" as="geometry">
            <mxPoint x="469" y="244" as="sourcePoint" />
            <mxPoint x="570" y="205" as="targetPoint" />
          </mxGeometry>
        </mxCell>
        <mxCell id="2Qd5O2qRDvd94ITP7LHX-65" value="Lekarza_przeprowadzaja" style="html=1;whiteSpace=wrap;aspect=fixed;shape=isoRectangle;" vertex="1" parent="1">
          <mxGeometry x="680" y="265" width="150" height="90" as="geometry" />
        </mxCell>
        <mxCell id="2Qd5O2qRDvd94ITP7LHX-66" value="" style="endArrow=none;html=1;rounded=0;entryX=0.7;entryY=1.017;entryDx=0;entryDy=0;entryPerimeter=0;exitX=0.352;exitY=0.175;exitDx=0;exitDy=0;exitPerimeter=0;" edge="1" parent="1" source="2Qd5O2qRDvd94ITP7LHX-65" target="2Qd5O2qRDvd94ITP7LHX-36">
          <mxGeometry width="50" height="50" relative="1" as="geometry">
            <mxPoint x="430" y="300" as="sourcePoint" />
            <mxPoint x="480" y="250" as="targetPoint" />
          </mxGeometry>
        </mxCell>
        <mxCell id="2Qd5O2qRDvd94ITP7LHX-71" value="" style="endArrow=none;html=1;rounded=0;entryX=0.5;entryY=1;entryDx=0;entryDy=0;exitX=0.503;exitY=0.019;exitDx=0;exitDy=0;exitPerimeter=0;" edge="1" parent="1" source="2Qd5O2qRDvd94ITP7LHX-72" target="2Qd5O2qRDvd94ITP7LHX-36">
          <mxGeometry width="50" height="50" relative="1" as="geometry">
            <mxPoint x="530" y="260" as="sourcePoint" />
            <mxPoint x="480" y="250" as="targetPoint" />
          </mxGeometry>
        </mxCell>
        <mxCell id="2Qd5O2qRDvd94ITP7LHX-72" value="Wizyty_generuja" style="html=1;whiteSpace=wrap;aspect=fixed;shape=isoRectangle;" vertex="1" parent="1">
          <mxGeometry x="560" y="370" width="116.67" height="70" as="geometry" />
        </mxCell>
        <mxCell id="2Qd5O2qRDvd94ITP7LHX-73" value="nr" style="ellipse;whiteSpace=wrap;html=1;" vertex="1" parent="1">
          <mxGeometry x="420" y="545" width="120" height="80" as="geometry" />
        </mxCell>
        <mxCell id="2Qd5O2qRDvd94ITP7LHX-74" value="kwota" style="ellipse;whiteSpace=wrap;html=1;" vertex="1" parent="1">
          <mxGeometry x="560" y="580" width="120" height="80" as="geometry" />
        </mxCell>
        <mxCell id="2Qd5O2qRDvd94ITP7LHX-75" value="data" style="ellipse;whiteSpace=wrap;html=1;" vertex="1" parent="1">
          <mxGeometry x="707" y="545" width="120" height="80" as="geometry" />
        </mxCell>
        <mxCell id="2Qd5O2qRDvd94ITP7LHX-76" value="Rachunek" style="rounded=0;whiteSpace=wrap;html=1;" vertex="1" parent="1">
          <mxGeometry x="560" y="475" width="120" height="70" as="geometry" />
        </mxCell>
        <mxCell id="2Qd5O2qRDvd94ITP7LHX-77" value="" style="endArrow=none;html=1;rounded=0;entryX=0.523;entryY=0.943;entryDx=0;entryDy=0;exitX=0.5;exitY=0;exitDx=0;exitDy=0;entryPerimeter=0;" edge="1" parent="1" source="2Qd5O2qRDvd94ITP7LHX-76" target="2Qd5O2qRDvd94ITP7LHX-72">
          <mxGeometry width="50" height="50" relative="1" as="geometry">
            <mxPoint x="491" y="367" as="sourcePoint" />
            <mxPoint x="570" y="235" as="targetPoint" />
          </mxGeometry>
        </mxCell>
        <mxCell id="2Qd5O2qRDvd94ITP7LHX-78" value="Wlasciciele" style="rounded=0;whiteSpace=wrap;html=1;" vertex="1" parent="1">
          <mxGeometry x="60" y="480" width="120" height="60" as="geometry" />
        </mxCell>
        <mxCell id="2Qd5O2qRDvd94ITP7LHX-79" value="nazwisko" style="ellipse;whiteSpace=wrap;html=1;" vertex="1" parent="1">
          <mxGeometry y="580" width="120" height="80" as="geometry" />
        </mxCell>
        <mxCell id="2Qd5O2qRDvd94ITP7LHX-88" value="pesel" style="ellipse;whiteSpace=wrap;html=1;" vertex="1" parent="1">
          <mxGeometry x="1017" y="290" width="120" height="80" as="geometry" />
        </mxCell>
        <mxCell id="2Qd5O2qRDvd94ITP7LHX-90" value="Lekarze" style="rounded=0;whiteSpace=wrap;html=1;" vertex="1" parent="1">
          <mxGeometry x="870" y="366" width="120" height="60" as="geometry" />
        </mxCell>
        <mxCell id="2Qd5O2qRDvd94ITP7LHX-91" value="imie" style="ellipse;whiteSpace=wrap;html=1;" vertex="1" parent="1">
          <mxGeometry x="870" y="456" width="120" height="80" as="geometry" />
        </mxCell>
        <mxCell id="2Qd5O2qRDvd94ITP7LHX-92" value="nazwisko" style="ellipse;whiteSpace=wrap;html=1;" vertex="1" parent="1">
          <mxGeometry x="1017" y="406" width="120" height="80" as="geometry" />
        </mxCell>
        <mxCell id="2Qd5O2qRDvd94ITP7LHX-93" value="" style="endArrow=none;html=1;rounded=0;entryX=0.831;entryY=0.633;entryDx=0;entryDy=0;entryPerimeter=0;exitX=0;exitY=0;exitDx=0;exitDy=0;" edge="1" parent="1" source="2Qd5O2qRDvd94ITP7LHX-90" target="2Qd5O2qRDvd94ITP7LHX-65">
          <mxGeometry width="50" height="50" relative="1" as="geometry">
            <mxPoint x="620" y="266" as="sourcePoint" />
            <mxPoint x="906" y="310" as="targetPoint" />
          </mxGeometry>
        </mxCell>
        <mxCell id="2Qd5O2qRDvd94ITP7LHX-94" value="" style="endArrow=none;html=1;rounded=0;entryX=1;entryY=1;entryDx=0;entryDy=0;exitX=0;exitY=0;exitDx=0;exitDy=0;" edge="1" parent="1" source="2Qd5O2qRDvd94ITP7LHX-36" target="2Qd5O2qRDvd94ITP7LHX-39">
          <mxGeometry width="50" height="50" relative="1" as="geometry">
            <mxPoint x="520" y="380" as="sourcePoint" />
            <mxPoint x="570" y="330" as="targetPoint" />
          </mxGeometry>
        </mxCell>
        <mxCell id="2Qd5O2qRDvd94ITP7LHX-95" value="" style="endArrow=none;html=1;rounded=0;entryX=0.5;entryY=1;entryDx=0;entryDy=0;exitX=0.5;exitY=0;exitDx=0;exitDy=0;" edge="1" parent="1" source="2Qd5O2qRDvd94ITP7LHX-36" target="2Qd5O2qRDvd94ITP7LHX-41">
          <mxGeometry width="50" height="50" relative="1" as="geometry">
            <mxPoint x="590" y="180" as="sourcePoint" />
            <mxPoint x="526" y="158" as="targetPoint" />
          </mxGeometry>
        </mxCell>
        <mxCell id="2Qd5O2qRDvd94ITP7LHX-96" value="" style="endArrow=none;html=1;rounded=0;entryX=0;entryY=1;entryDx=0;entryDy=0;exitX=0.75;exitY=0;exitDx=0;exitDy=0;" edge="1" parent="1" source="2Qd5O2qRDvd94ITP7LHX-36" target="2Qd5O2qRDvd94ITP7LHX-38">
          <mxGeometry width="50" height="50" relative="1" as="geometry">
            <mxPoint x="600" y="190" as="sourcePoint" />
            <mxPoint x="610" y="120" as="targetPoint" />
          </mxGeometry>
        </mxCell>
        <mxCell id="2Qd5O2qRDvd94ITP7LHX-97" value="" style="endArrow=none;html=1;rounded=0;entryX=0;entryY=0.5;entryDx=0;entryDy=0;exitX=1;exitY=0.25;exitDx=0;exitDy=0;" edge="1" parent="1" source="2Qd5O2qRDvd94ITP7LHX-36" target="2Qd5O2qRDvd94ITP7LHX-40">
          <mxGeometry width="50" height="50" relative="1" as="geometry">
            <mxPoint x="660" y="190" as="sourcePoint" />
            <mxPoint x="708" y="108" as="targetPoint" />
          </mxGeometry>
        </mxCell>
        <mxCell id="2Qd5O2qRDvd94ITP7LHX-98" value="" style="endArrow=none;html=1;rounded=0;entryX=1;entryY=0;entryDx=0;entryDy=0;exitX=0;exitY=0.5;exitDx=0;exitDy=0;" edge="1" parent="1" source="2Qd5O2qRDvd94ITP7LHX-88" target="2Qd5O2qRDvd94ITP7LHX-90">
          <mxGeometry width="50" height="50" relative="1" as="geometry">
            <mxPoint x="880" y="376" as="sourcePoint" />
            <mxPoint x="815" y="332" as="targetPoint" />
          </mxGeometry>
        </mxCell>
        <mxCell id="2Qd5O2qRDvd94ITP7LHX-99" value="" style="endArrow=none;html=1;rounded=0;entryX=0;entryY=0.5;entryDx=0;entryDy=0;exitX=1;exitY=1;exitDx=0;exitDy=0;" edge="1" parent="1" source="2Qd5O2qRDvd94ITP7LHX-90" target="2Qd5O2qRDvd94ITP7LHX-92">
          <mxGeometry width="50" height="50" relative="1" as="geometry">
            <mxPoint x="1027" y="340" as="sourcePoint" />
            <mxPoint x="1000" y="376" as="targetPoint" />
          </mxGeometry>
        </mxCell>
        <mxCell id="2Qd5O2qRDvd94ITP7LHX-100" value="" style="endArrow=none;html=1;rounded=0;entryX=0.5;entryY=0;entryDx=0;entryDy=0;exitX=0.5;exitY=1;exitDx=0;exitDy=0;" edge="1" parent="1" source="2Qd5O2qRDvd94ITP7LHX-90" target="2Qd5O2qRDvd94ITP7LHX-91">
          <mxGeometry width="50" height="50" relative="1" as="geometry">
            <mxPoint x="1000" y="436" as="sourcePoint" />
            <mxPoint x="1027" y="456" as="targetPoint" />
          </mxGeometry>
        </mxCell>
        <mxCell id="2Qd5O2qRDvd94ITP7LHX-101" value="" style="endArrow=none;html=1;rounded=0;entryX=0;entryY=0;entryDx=0;entryDy=0;exitX=1;exitY=0.75;exitDx=0;exitDy=0;" edge="1" parent="1" source="2Qd5O2qRDvd94ITP7LHX-76" target="2Qd5O2qRDvd94ITP7LHX-75">
          <mxGeometry width="50" height="50" relative="1" as="geometry">
            <mxPoint x="940" y="436" as="sourcePoint" />
            <mxPoint x="940" y="466" as="targetPoint" />
          </mxGeometry>
        </mxCell>
        <mxCell id="2Qd5O2qRDvd94ITP7LHX-102" value="" style="endArrow=none;html=1;rounded=0;entryX=0.5;entryY=0;entryDx=0;entryDy=0;exitX=0.5;exitY=1;exitDx=0;exitDy=0;" edge="1" parent="1" source="2Qd5O2qRDvd94ITP7LHX-76" target="2Qd5O2qRDvd94ITP7LHX-74">
          <mxGeometry width="50" height="50" relative="1" as="geometry">
            <mxPoint x="690" y="538" as="sourcePoint" />
            <mxPoint x="735" y="567" as="targetPoint" />
          </mxGeometry>
        </mxCell>
        <mxCell id="2Qd5O2qRDvd94ITP7LHX-103" value="" style="endArrow=none;html=1;rounded=0;entryX=1;entryY=0;entryDx=0;entryDy=0;exitX=0;exitY=1;exitDx=0;exitDy=0;" edge="1" parent="1" source="2Qd5O2qRDvd94ITP7LHX-76" target="2Qd5O2qRDvd94ITP7LHX-73">
          <mxGeometry width="50" height="50" relative="1" as="geometry">
            <mxPoint x="630" y="555" as="sourcePoint" />
            <mxPoint x="630" y="590" as="targetPoint" />
          </mxGeometry>
        </mxCell>
        <mxCell id="2Qd5O2qRDvd94ITP7LHX-104" value="" style="endArrow=none;html=1;rounded=0;entryX=0.5;entryY=0;entryDx=0;entryDy=0;exitX=1;exitY=1;exitDx=0;exitDy=0;" edge="1" parent="1" source="2Qd5O2qRDvd94ITP7LHX-78" target="2Qd5O2qRDvd94ITP7LHX-53">
          <mxGeometry width="50" height="50" relative="1" as="geometry">
            <mxPoint x="570" y="555" as="sourcePoint" />
            <mxPoint x="532" y="567" as="targetPoint" />
          </mxGeometry>
        </mxCell>
        <mxCell id="2Qd5O2qRDvd94ITP7LHX-105" value="" style="endArrow=none;html=1;rounded=0;entryX=0.5;entryY=0;entryDx=0;entryDy=0;exitX=0.25;exitY=1;exitDx=0;exitDy=0;" edge="1" parent="1" source="2Qd5O2qRDvd94ITP7LHX-78" target="2Qd5O2qRDvd94ITP7LHX-79">
          <mxGeometry width="50" height="50" relative="1" as="geometry">
            <mxPoint x="190" y="550" as="sourcePoint" />
            <mxPoint x="230" y="590" as="targetPoint" />
          </mxGeometry>
        </mxCell>
        <mxCell id="2Qd5O2qRDvd94ITP7LHX-106" value="" style="endArrow=none;html=1;rounded=0;entryX=1;entryY=0.5;entryDx=0;entryDy=0;exitX=0;exitY=0.5;exitDx=0;exitDy=0;" edge="1" parent="1" source="2Qd5O2qRDvd94ITP7LHX-78" target="2Qd5O2qRDvd94ITP7LHX-52">
          <mxGeometry width="50" height="50" relative="1" as="geometry">
            <mxPoint x="100" y="550" as="sourcePoint" />
            <mxPoint x="70" y="590" as="targetPoint" />
          </mxGeometry>
        </mxCell>
      </root>
    </mxGraphModel>
  </diagram>
</mxfile>
